@startuml
'https://plantuml.com/class-diagram

interface Interface1
interface Interface2
interface Interface3
class B
class D
class A
class C

Interface1 <|-- B
Interface1 <|-- D
A o---- Interface1
C <|-- Interface1


interface Interface1{
    operation1():void
}

interface Interface2{
    operation2():void
    operation3():void
}

interface Interface3{
    operation4():void
    operation5():void
}


@enduml